# xmcd
#
# Track frame offsets: 
#        151
#        22056
#        64694
#        80829
#        104677
#        121967
#        137236
#        148502
#        180835
#        202284
#        233012
#        250581
#        275100
#        291552
#        308308
#
# Disc length: 4366 seconds
#
# Revision: 0
# Processed by: cddbd v1.5.1PL2 Copyright (c) Steve Scherf et al.
# Submitted via: ExactAudioCopy v0.95a5
#
DISCID=e3110c0f
DTITLE=Various Artist - Ladies of Soul
DYEAR=1999
DGENRE=Soul
TTITLE0=Valerie Ford - A House Is Not a Home
TTITLE1=Vicki Sue Robinson - Nightime Fantasy
TTITLE2=Vanessa Williams - One of a Kind
TTITLE3=Gladys Knight - I Feel a Song (In My Heart)
TTITLE4=Dionne Warwick - Don't Say I Didn't Tell You So
TTITLE5=First Choice -  Love Freeze
TTITLE6=Freda Payne - A Sunday Kind of Love
TTITLE7=Jackie Moore - This Time Baby
TTITLE8=Gladys Knight - The Last Goodbye
TTITLE9=Gloria Gaynor - Love Is Just a Heartbeat Away
TTITLE10=Janus - I'm Your Puppet
TTITLE11=Maggie - Love Goes 'Round and 'Round
TTITLE12=Freda Payne - Bring Back the Joy
TTITLE13=Dionne Warwick - Loving You Is Just an Old Habit
TTITLE14=Sandra Feva - Love Me for What I Am
EXTD=
EXTT0=
EXTT1=
EXTT2=
EXTT3=
EXTT4=
EXTT5=
EXTT6=
EXTT7=
EXTT8=
EXTT9=
EXTT10=
EXTT11=
EXTT12=
EXTT13=
EXTT14=
PLAYORDER=
